# xmcd CD database file
#
# Track frame offsets:
#	150
#	11607
#	25457
#	35180
#	52602
#	65272
#	79430
#	98925
#	119102
#	132237
#	144062
#
# Disc length: 2101 seconds
#
# Revision: 1
# Processed by: cddbd v1.5.2PL0 Copyright (c) Steve Scherf et al.
# Submitted via: CDex 1.51
#
DISCID=9508330b
DTITLE=Rita Engebretsen og Helge Borglund - Frem fra Glemselen kapittel 1
DYEAR=1974
DGENRE=Schillingsviser
TTITLE0=Rita Engebretsen - Ved Idas grav
TTITLE1=Helge Borglund - En drankers hytte
TTITLE2=Rita Engebretsen - Fisker-pikens sang
TTITLE3=Helge Borglund - Burobengens tragiske møte
TTITLE4=Rita Engebretsen - Tatervise ved bålet
TTITLE5=Helge Borglund - Gale-Truls
TTITLE6=Rita Engebretsen - Tullingen
TTITLE7=Helge Borglund - I en sal på hospitalet
TTITLE8=Rita Engebretsen - Lille mor
TTITLE9=Helge Borglund - Brevet
TTITLE10=Rita Engebretsen - Fant-Sonja
EXTD=YEAR: 1974
EXTT0=
EXTT1=
EXTT2=
EXTT3=
EXTT4=
EXTT5=
EXTT6=
EXTT7=
EXTT8=
EXTT9=
EXTT10=
PLAYORDER=
